<?xml version="1.0" ?><!DOCTYPE svg  PUBLIC '-//W3C//DTD SVG 1.1//EN'  'http://www.w3.org/Graphics/SVG/1.1/DTD/svg11.dtd'><svg enable-background="new 0 0 91 91" height="91px" id="Layer_1" version="1.1" viewBox="0 0 91 91" width="91px" xml:space="preserve" xmlns="http://www.w3.org/2000/svg" xmlns:xlink="http://www.w3.org/1999/xlink"><g><path d="M55.878,33.191V19.586H39.604v4.044H21.481l-5.694,8.352l5.694,8.353h18.122v2.418H21.481l-5.694,8.353   l5.694,8.351h18.122v15.318h9.542c3.712,0,6.732-3.02,6.732-6.732V49.896H74l5.693-8.353L74,33.191H55.878z M23.278,36.935   l-3.376-4.952l3.376-4.952h16.325v9.904H23.278z M23.278,56.057l-3.376-4.95l3.376-4.952h16.325v9.902H23.278z M52.478,68.043   c0,1.838-1.495,3.332-3.332,3.332h-6.142V59.457l0,0V42.754l0,0v-2.418l0,0V23.631l0,0v-0.644h9.474v10.205v16.705V68.043z    M72.203,46.496H55.878v-9.904h16.325l3.375,4.952L72.203,46.496z" fill="#010101"/></g></svg>