<?xml version="1.0" ?><!DOCTYPE svg  PUBLIC '-//W3C//DTD SVG 1.1//EN'  'http://www.w3.org/Graphics/SVG/1.1/DTD/svg11.dtd'><svg enable-background="new 0 0 64 64" height="64px" id="Layer_1" version="1.1" viewBox="0 0 64 64" width="64px" xml:space="preserve" xmlns="http://www.w3.org/2000/svg" xmlns:xlink="http://www.w3.org/1999/xlink"><g><path d="M63.926,36.805c0-0.933-0.758-1.692-1.691-1.692c-0.119,0-0.225,0.045-0.338,0.068l-0.02-0.029   c0,0-0.086-0.003-0.273,0.089c-0.033,0.015-0.061,0.033-0.094,0.051c-0.086,0.048-0.197,0.122-0.322,0.218   c-0.059,0.047-0.125,0.083-0.176,0.14c-0.432,0.352-1.057,0.963-1.939,2.021l0.004-0.019C52.756,45.623,43,50.747,32.036,50.747   c-11.183,0-21.114-5.324-27.42-13.567c-0.011-0.015-0.022-0.018-0.034-0.033c0,0-0.823-1.116-1.441-1.746   c-0.046-0.05-0.094-0.095-0.145-0.143c-0.076-0.068-0.15-0.134-0.213-0.178c-0.032-0.024-0.061-0.016-0.092-0.027   c-0.257-0.144-0.538-0.25-0.854-0.25c-0.974,0-1.764,0.789-1.764,1.763c0,0.37,0.14,0.695,0.335,0.978   c0,0.019,0.002,0.039,0.003,0.048c5.331,12.176,17.48,20.688,31.624,20.688c13.298,0,24.82-7.535,30.582-18.558   c0.021-0.033,0.041-0.058,0.062-0.097c0.643-1.155,0.957-1.85,1.098-2.192c0.02-0.044,0.039-0.089,0.055-0.137   c0.031-0.083,0.047-0.128,0.047-0.128l-0.021-0.006C63.887,37.046,63.926,36.933,63.926,36.805z"/><path d="M12.281,21.011l0.016,0.012c0,0,1.353-0.774,0.527,1.059c-0.015,0.034-0.017,0.053-0.029,0.084   c-3.152,6.234-2.272,12.356-0.566,16.961c0.054,0.129,0.152,0.334,0.274,0.561l-0.006-0.003c0,0,0.052,0.092,0.146,0.234   c0.195,0.326,0.443,0.671,0.774,0.993c0.96,1.065,2.709,2.511,5.408,3.003c0.4,0.109,1.043,0.234,1.71,0.173   c0.017,0,0.033,0.002,0.05,0.002c-0.001-0.002-0.003-0.006-0.004-0.008c0.467-0.051,0.939-0.188,1.335-0.513   c0.018-0.015,0.032-0.018,0.049-0.032c2.425-2.173,5.478-3.755,9.258-3.755c3.023-0.029,6.65,1.669,9.701,4.419l0.006-0.003   c0,0,1.283,1.102,2.941,0.387c0.486-0.202,0.99-0.42,1.502-0.649c1.52-0.679,1.836-2.422,1.85-2.499   c0.07-0.625,0.111-1.261,0.111-1.907c0-3.569-0.943-6.884-2.551-9.679V29.85c0,0-0.719-1.206,0.34-1.812   c1.471-0.757,2.947-0.52,3.945-0.161c0.342,0.142,0.666,0.323,0.988,0.506c0.504,0.398,2.859,2.418,3.727,5.889   c0.064,0.324,0.127,0.652,0.164,1.001l0,0c0.002,0.006,0.002,0.009,0.002,0.015c0.016,0.093,0.246,1.335,1.521,0.211l3.465-3.065   c0.002,0,0.002-0.003,0.006-0.006c0.824-0.73,0.752-1.647,0.678-2.019c-1.289-4.837-5.201-8.357-9.836-8.357   c-2.549,0-4.861,1.083-6.654,2.848c-0.025,0.02-0.049,0.031-0.076,0.056c-1.197,1.035-2.035,0.318-2.035,0.318l-0.006,0.002   c-2.713-2.331-6.098-3.732-9.789-3.732c-1.29,0-2.536,0.194-3.735,0.519c-0.034,0.006-0.049-0.002-0.085,0.004   c-1.839,0.384-1.107-1.24-1.107-1.24s-0.021,0.006-0.027,0.007c0.989-3.157,0.916-7.61-0.542-10.159   C20.265,2.374,10.111,6.663,7.05,8.219C6.234,8.611,6.426,9.222,6.527,9.44c0.013,0.027,0.026,0.053,0.041,0.082   c0,0,0.003,0.004,0.003,0.004c0.205,0.413,0.491,0.994,0.884,1.812c0.117,0.282,0.274,0.886-0.285,1.295   c-0.004,0.001-0.001,0.003-0.005,0.006C5.051,14.06,2.672,16.655,4.5,19.51C6.21,22.184,9.357,22.231,12.281,21.011z    M10.199,14.521c0.224-0.15,0.432-0.295,0.619-0.429c0.001,0,0.001,0,0.001,0c0.714-0.476,0.729-1.072,0.644-1.445l-0.297-0.813   c-0.003-0.015-0.38-1.369,1.091-1.668c14.26-2.897,11.517,9.884,10.461,12.429c-1.081,2.606,1.462,4.576,4.132,3.814   c8.639-2.404,13.615,3.313,16.045,7.813c0.072,0.176,0.832,2.031,1.168,3.611c0.025,0.24,0.121,1.667-1.086,2.225   c-1.154,0.584-2.236,0.167-2.719-0.093c-1.125-0.683-3.182-1.934-7.434-3.452c-4.549-1.624-9.222,1.489-11.615,3.292   c-0.006,0.003-0.009,0.006-0.016,0.009c-2.137,1.466-3.794,0.146-3.94,0.023c-0.772-0.682-1.668-1.767-2.605-3.515   c-2.352-4.385,1.334-14.554,1.525-17.288c0.19-2.732-3.179-1.97-4.195-1.462s-3.241,1.081-3.876,0   C7.339,16.111,10.199,14.521,10.199,14.521z"/></g></svg>